<?xml version="1.0" encoding="utf-8"?>
<!-- Generator: Adobe Illustrator 21.0.0, SVG Export Plug-In . SVG Version: 6.00 Build 0)  -->
<svg version="1.1" id="Layer_1" xmlns="http://www.w3.org/2000/svg" xmlns:xlink="http://www.w3.org/1999/xlink" x="0px" y="0px"
	 viewBox="0 0 56.7 56.7" style="enable-background:new 0 0 56.7 56.7;" xml:space="preserve">
<style type="text/css">
	.st0{fill:#0000FF;}
</style>
<g>
	<path class="st0" d="M52.8,29C52.8,29,52.8,29,52.8,29c0.1,0,0.2-0.1,0.2-0.1c0-0.1,0-0.2-0.1-0.2c-2.3-0.4-4-0.9-9.7-0.8
		c0.4-1.3,0.5-2.9,0.6-4.7c0-5-2.4-6.8-2.9-7.6c0.7-3.8-0.1-5.5-0.5-6.1c-1.4-0.5-4.7,1.2-6.5,2.5c-3-0.9-9.3-0.8-11.7,0.2
		c-4.4-3.1-6.7-2.7-6.7-2.7s-1.5,2.7-0.4,6.6c-1.4,1.8-2.5,3.1-2.5,6.6c0,1.9,0.2,3.7,0.7,5.2c-2.3,0-7.1,0.3-9.3,0.9
		c-0.1,0-0.1,0.1-0.1,0.2C3.9,29,4,29,4,29c0,0,0,0,0,0c2.3-0.6,7.2-0.9,9.4-0.8c0.1,0.3,0.3,0.6,0.4,0.9c-5.5,0.1-7,0.9-9.3,1.5
		c-0.2,0-0.3,0.1-0.5,0.1c-0.1,0-0.1,0.1-0.1,0.2c0,0.1,0.1,0.1,0.2,0.1c0,0,0,0,0,0C4.3,31,4.4,31,4.6,31c2.3-0.6,3.8-1.4,9.4-1.5
		c1.6,3,4.8,4.8,10.2,5.4c-0.8,0.6-1.7,1.7-1.8,3c-1,0.6-2.9,0.8-4.4,0.4c-2.1-0.7-2.9-4.8-6.1-4.2c-0.7,0.1-0.5,0.6,0,1
		c1,0.6,1.9,1.4,2.6,3.1c0.5,1.3,1.7,3.5,5.2,3.5c1.4,0,2.4-0.2,2.4-0.2s0,3.2,0,4.5c0,1.5-2,1.9-2,2.6c0,0.3,0.6,0.3,1.2,0.3
		c1,0,3.2-0.9,3.2-2.4c0-1.2,0-5.2,0-5.9c0-1.5,0.8-2,0.8-2s0.1,8.2-0.2,9.3c-0.4,1.3-1,1.1-1,1.7c0,0.9,2.6,0.2,3.4-1.7
		c0.7-1.5,0.4-9.6,0.4-9.6l0.7,0c0,0,0,3.7,0,5.4c0,1.8-0.1,4,0.9,5c0.7,0.7,2.9,1.9,2.9,0.8c0-0.6-1.2-1.2-1.2-2.9c0-1.9,0-7.4,0-8
		c1,0,0.8,2.6,0.8,2.6l0.1,4.9c0,0-0.2,1.8,1.9,2.5c0.8,0.3,2.4,0.3,2.4-0.1c0.1-0.4-1.9-1.1-2-2.5c0-0.8,0-1.3,0-5
		c0-3.6-0.5-5-2.2-6.1c5.3-0.5,8.5-1.8,10.1-5.3c1.8,0.1,5.6,0.2,10.1,1.6c0,0,0,0,0,0c0.1,0,0.1,0,0.2-0.1c0-0.1,0-0.2-0.1-0.2
		c-4.4-1.3-8.1-1.5-10-1.6c0.1-0.3,0.2-0.6,0.3-1C48.8,28.1,50.5,28.6,52.8,29z M13,34.6c-0.2,0-0.4-0.1-0.4-0.3S12.8,34,13,34
		c0.2,0,0.4,0.1,0.4,0.3C13.4,34.4,13.2,34.6,13,34.6z M13.8,34.9c0-0.1,0.2-0.3,0.4-0.3c0.2,0,0.4,0.1,0.4,0.3s-0.2,0.3-0.4,0.3
		C14,35.2,13.8,35.1,13.8,34.9z M14.5,35.8c0-0.1,0.2-0.3,0.4-0.3s0.4,0.1,0.4,0.3s-0.2,0.3-0.4,0.3S14.5,35.9,14.5,35.8z M15.5,37
		c-0.2,0-0.4-0.1-0.4-0.3s0.2-0.3,0.4-0.3c0.2,0,0.4,0.1,0.4,0.3S15.7,37,15.5,37z M16.3,38c-0.2,0-0.4-0.1-0.4-0.3s0.2-0.3,0.4-0.3
		c0.2,0,0.4,0.1,0.4,0.3S16.5,38,16.3,38z M17.2,38.7c-0.2,0-0.4-0.1-0.4-0.3s0.2-0.3,0.4-0.3c0.2,0,0.4,0.1,0.4,0.3
		C17.6,38.6,17.4,38.7,17.2,38.7z M18.6,39.2c-0.2,0-0.4-0.1-0.4-0.3s0.2-0.3,0.4-0.3c0.2,0,0.4,0.1,0.4,0.3
		C19,39.1,18.8,39.2,18.6,39.2z M20,39.2c-0.2,0-0.4-0.1-0.4-0.3s0.2-0.3,0.4-0.3c0.2,0,0.4,0.1,0.4,0.3
		C20.4,39.1,20.2,39.2,20,39.2z M21.4,39c-0.2,0-0.4-0.1-0.4-0.3s0.2-0.3,0.4-0.3c0.2,0,0.4,0.1,0.4,0.3S21.6,39,21.4,39z
		 M32.1,33.6c-1.1,0-2.3,0.1-3.5,0.1c-1.2,0-2.4,0-3.4-0.1c-5.8-0.2-9-2.6-9-6.9c0-0.4,0.1-2,1.3-3.4c1.2-1.4,2.9-2.1,5.1-2.1
		c0.2,0,0.4,0,1,0.1c1.2,0.1,3.1,0.2,5.1,0.2c1.8,0,3.5-0.1,4.5-0.2c0.4,0,0.6,0,0.7,0c4.7,0,6.4,3,6.4,5.8
		C40.3,29.9,38.9,33.4,32.1,33.6z"/>
	<path class="st0" d="M11.8,37.3c0.9,0,0-1.4,0-2.1C11.8,35.8,10.9,37.3,11.8,37.3z"/>
	<path class="st0" d="M29.5,31.2c-0.1,0-0.2,0.1-0.2,0.2c0,0.4-0.4,0.8-1,0.8c-0.1,0-0.2,0-0.2,0c-0.2,0-0.4-0.1-0.5-0.2
		c0,0-0.1,0-0.1-0.1c-0.1-0.1-0.1-0.1-0.2-0.2c-0.1-0.1-0.1-0.2-0.1-0.3c0-0.1-0.1-0.2-0.2-0.2c-0.1,0-0.2,0.1-0.2,0.2
		c0,0,0,0.1,0,0.2c0,0.1,0.1,0.2,0.1,0.3c0.1,0.1,0.2,0.2,0.3,0.3c0.1,0.1,0.2,0.2,0.3,0.2c0.2,0.1,0.3,0.1,0.5,0.2
		c0.1,0,0.1,0,0.2,0c0.4,0,0.7-0.1,0.9-0.3c0,0,0.1-0.1,0.1-0.1c0.1-0.1,0.1-0.1,0.2-0.2c0.1-0.2,0.2-0.3,0.2-0.5c0,0,0-0.1,0-0.1
		C29.7,31.3,29.6,31.2,29.5,31.2z"/>
	<path class="st0" d="M27.8,30.3c0,0.1,0.1,0.1,0.2,0.2c0,0,0,0,0.1,0c0.1,0,0.1,0,0.2,0.1c0,0,0.1,0,0.1,0c0.1,0,0.2,0,0.3-0.1
		c0,0,0.1-0.1,0.1-0.1c0,0,0.1-0.1,0.1-0.2c0-0.1,0-0.1,0-0.2c0-0.3-0.3-0.6-0.6-0.6c-0.2,0-0.3,0.1-0.4,0.2c0,0,0,0,0,0
		c0,0-0.1,0.1-0.1,0.1c0,0.1-0.1,0.1-0.1,0.2c0,0,0,0.1,0,0.1s0,0.1,0,0.1C27.8,30.2,27.8,30.2,27.8,30.3z"/>
	<path class="st0" d="M23.5,24.2c-0.1-0.1-0.2-0.3-0.4-0.4s-0.3-0.2-0.4-0.3s-0.3-0.1-0.5-0.1c-0.1,0-0.2,0-0.2,0
		c-1.3,0-2.4,1.6-2.4,3.6s1.1,3.4,2.4,3.4c0.1,0,0.2,0,0.2,0c0.2,0,0.3-0.1,0.5-0.1c0.2-0.1,0.3-0.1,0.4-0.2
		c0.1-0.1,0.3-0.2,0.4-0.3c0.1-0.1,0.2-0.3,0.3-0.4c0.3-0.6,0.6-1.3,0.6-2.2s-0.2-1.7-0.6-2.3C23.8,24.5,23.6,24.3,23.5,24.2z"/>
	<path class="st0" d="M35.1,23.4c-1.3,0-2.4,1.6-2.4,3.6s1.1,3.4,2.4,3.4s2.4-1.4,2.4-3.4S36.4,23.4,35.1,23.4z"/>
</g>
</svg>
