<svg id="Layer_1" xmlns="http://www.w3.org/2000/svg" viewBox="0 0 49.26 40.04"><title>twitter</title><path d="M54.08,15.55a20.14,20.14,0,0,1-5.81,1.59,10.13,10.13,0,0,0,4.44-5.59A20.23,20.23,0,0,1,46.3,14a10.12,10.12,0,0,0-17.22,9.22A28.69,28.69,0,0,1,8.25,12.66a10.12,10.12,0,0,0,3.13,13.49A10.07,10.07,0,0,1,6.8,24.89s0,.08,0,.13a10.11,10.11,0,0,0,8.11,9.91,10.13,10.13,0,0,1-4.57.17,10.12,10.12,0,0,0,9.44,7A20.28,20.28,0,0,1,7.23,46.45a20.7,20.7,0,0,1-2.41-.14,28.61,28.61,0,0,0,15.49,4.54c18.59,0,28.76-15.4,28.76-28.76,0-.44,0-.87,0-1.31A20.52,20.52,0,0,0,54.08,15.55Z" transform="translate(-4.82 -10.81)" style="fill:blue"/></svg>
