<svg id="Layer_1" data-name="Layer 1" xmlns="http://www.w3.org/2000/svg" viewBox="0 0 560 560"><title>under-construction</title><path d="M23.88,82.67A144.83,144.83,0,0,1,55.09,70.26c9.32-2.47,18.06-4,25.91-9.95,8.52-6.47,15.92-13,26-17,9.75-3.88,20.14-5.94,30.4-8,1.89-.38,1.09-3.27-.8-2.89-10.27,2.05-20.62,4.15-30.4,8-9,3.53-16.28,8.7-23.62,14.81-4.5,3.74-9,6.93-14.66,8.74-5,1.62-10.3,2.49-15.39,3.91a148.9,148.9,0,0,0-30.2,12.25c-1.7.91-.19,3.5,1.51,2.59Z" style="fill:blue"/><path d="M68.64,35.62a339.23,339.23,0,0,0-8.38,54.78c-.7,8.86-1.19,17.74-1.59,26.61-.41,9.21-1.22,18.59-.59,27.81.85,12.53,6.12,26.76,19.19,31,10.46,3.42,23.2-3.82,23.15-15.39a1.5,1.5,0,0,0-3,0c0,6.84-5.59,11.95-12.08,13.07s-12.75-2.5-16.86-7.4c-9.53-11.37-7.69-27.74-7.13-41.51,1.2-29.62,3-59.33,10.19-88.21.46-1.87-2.43-2.67-2.89-.8Z" style="fill:blue"/><path d="M138.47,96.85c-9.87-.66-12.49,10.16-11.63,18,.92,8.33,9.1,9.92,16.41,9,6.27-.75,17.26-5.83,16.2-13.8s-13.51-11.79-20.14-12.16c-1.93-.11-1.92,2.89,0,3,5.19.28,11.08,2.1,14.75,6,6.36,6.8-3.9,12.5-9.3,13.65a21.81,21.81,0,0,1-7.25.28c-4.06-.51-6.73-1.69-7.68-6-1.31-6.06,1-15.48,8.63-15,1.93.13,1.92-2.87,0-3Z" style="fill:blue"/><path d="M179.78,119.16a87.85,87.85,0,0,1,4.4-30.91,21,21,0,0,1,1.45-3.66q4.43-1.15,7,1.78A29,29,0,0,1,197,91a52.81,52.81,0,0,1,7.34,12c.56,1.24,2.4.78,2.74-.36,1.45-4.78,3.06-10.33,7.55-13.17,5.26-3.33,10.81,0,14.44,4,5.89,6.56,8.26,15.41,7.46,24.07-.18,1.92,2.82,1.91,3,0,1-11.14-3.33-24.49-13.44-30.48-11.72-6.95-19,5.1-21.91,14.78l2.74-.36a54.08,54.08,0,0,0-11.06-16.12c-2.75-2.73-7-6.81-11.11-4.12s-5,10.91-5.94,15.23a96.4,96.4,0,0,0-2.06,22.69c0,1.93,3,1.93,3,0Z" style="fill:blue"/><path d="M85.51,225.78C80.66,252,93.79,276,100.66,300.47c.44,1.57,3.15,1.33,2.95-.4a95,95,0,0,1-.5-17.35c.39-5.83.84-13.24,3.62-18.55a8.32,8.32,0,0,1,3.19-3.54c3.79-1.94,5.62.74,7.68,3.33,1.82,2.29,3.33,4.88,5,7.3l11.05,16.21c1.08,1.59,3.68.09,2.59-1.51-5.51-8.09-10.78-16.44-16.58-24.32-2.83-3.84-6.57-6.17-11.23-3.59-5.47,3-6.44,10.56-7.32,16.1a94.74,94.74,0,0,0-.47,25.93l2.95-.4c-6.69-23.85-19.87-47.59-15.15-73.1.35-1.89-2.54-2.7-2.89-.8Z" style="fill:blue"/><path d="M135,256.23a133.51,133.51,0,0,0,16.09,17.48c3.26,2.93,7.65,6.74,12.28,4.38,4.31-2.2,5.11-8.28,5.11-12.58,0-7.62-2.91-14.86-5.77-21.79-.73-1.76-3.63-1-2.89.8a82.75,82.75,0,0,1,4.87,14.14,30.4,30.4,0,0,1,.73,8.67,19,19,0,0,1-.83,4.51q-.54,3.49-4.34,2.41a4.27,4.27,0,0,1-5.68-1.43q-1.37-1.21-2.71-2.46-2.68-2.5-5.21-5.14a140.4,140.4,0,0,1-9.53-11.1c-1.18-1.52-3.29.61-2.12,2.12Z" style="fill:blue"/><path d="M156.81,196.93c-2,11.56,2.47,22.23,7.1,32.59,5.7,12.75,11.9,25.26,18.1,37.77.78,1.57,3.12.45,2.74-1.16-2.49-10.5,8.95-16.62,17.3-11.37,5.76,3.62,9.77,9.45,15.5,13.16,1.62,1.05,3.13-1.54,1.51-2.59-7.84-5.08-13.93-16.18-24.4-15.9-8.74.23-14.74,9.33-12.81,17.49l2.74-1.16c-5.34-10.76-10.67-21.53-15.69-32.45s-11.42-23.08-9.22-35.6c.33-1.89-2.56-2.7-2.89-.8Z" style="fill:blue"/><path d="M258.07,226.23l-18.52,0c-3.86,0-9.7-1.07-13.06,1.48-5.1,3.86-2.57,13.37.88,17.47,5.17,6.16,12.75,2.79,18.12-1.3a33.33,33.33,0,0,0,12.61-21.48l-2.74.36c6.35,9.87,8.46,23.31,10.84,34.65,1.32,6.3,2.9,13.06,2,19.51-1,6.82-9.75,16.82-16.11,8.34-1.14-1.53-3.75,0-2.59,1.51a10.76,10.76,0,0,0,13.37,3.37c6.26-2.94,8.57-10.21,8.61-16.63.06-9.31-2.67-18.89-4.93-27.84-2.11-8.34-3.85-17.08-8.57-24.42-.63-1-2.53-1-2.74.36a31,31,0,0,1-7.45,16.12c-3.92,4.41-12.71,11.46-18,5.58a13.29,13.29,0,0,1-3-8.21c-.21-5.64,5.63-5.85,9.86-5.86l21.44,0a1.5,1.5,0,0,0,0-3Z" style="fill:blue"/><path d="M285.41,221.38A70,70,0,0,0,305.23,220c3.27-.72,11.29-1.79,13.1-5.3,3.83-7.42-13.92-9.63-17.92-8-8.56,3.4-8.27,17-4.23,23.7,6.33,10.47,20,9.8,30.51,8.63,1.9-.21,1.92-3.21,0-3-7.47.83-15.81,1.83-22.62-2.14-6.62-3.86-10.38-14.89-5.78-21.77,2.63-3.92,7.68-3.54,11.63-2.38,2.15.63,6.09,1.25,3,4.9-.76.92-4,1.35-5.07,1.64a66.74,66.74,0,0,1-22.47,2.16c-1.93-.13-1.92,2.87,0,3Z" style="fill:blue"/><path d="M374.06,186.44c-2.54,3.49-7,7.7-8.45,11.74-.73,2-.15,3.09,1.38,4.43,3.64,3.21,9.17,2.48,10.79,8.2,1.74,6.17-3.14,11-8.49,12.83-1.82.62-1,3.52.8,2.89,6.95-2.37,12.72-8.73,10.59-16.52-1-3.66-3.58-5.87-6.9-7.43-1.09-.51-2.71-.81-3.6-1.57-2.42-2.07-1-2.77.27-4.51l6.21-8.55c1.14-1.56-1.47-3.06-2.59-1.51Z" style="fill:blue"/><path d="M62.67,407.61A91.52,91.52,0,0,0,80.06,429a1.52,1.52,0,0,0,2.51-.66,47.3,47.3,0,0,0,1.38-13.6c0-.84-.7-3.06-.38-3.79.63-1.46,2.79-1.67,4-1.51,2,.27,4.31,1.91,6,3,5.9,4,10.61,9.21,17.36,11.86a1.51,1.51,0,0,0,1.85-1.85l-10.12-31.61c-.59-1.83-3.48-1-2.89.8l10.12,31.61,1.85-1.85c-8.9-3.5-14.55-12.59-24-15.05-2.36-.62-5.55-1-6.9,1.51-1,2,0,4.76.07,6.84a44.76,44.76,0,0,1-1.27,12.81l2.51-.66A88.76,88.76,0,0,1,65.26,406.1a1.5,1.5,0,0,0-2.59,1.51Z" style="fill:blue"/><path d="M125.68,394.27c7.29-1.38,24.94-8,18.1-18.46-2.73-4.19-8.21-5.23-12.88-5.17-4.47.06-6.66,2.16-7.44,6.53-1.85,10.34-.08,20.78,10.37,25.28,8.57,3.69,23.23,6.48,30-1.77,1.22-1.48-.89-3.61-2.12-2.12-4.89,5.93-13.57,4.58-20.23,3.1-7.75-1.71-14.56-5.24-15.48-13.92-.32-3-.61-8.11.55-11,1.64-4,6.68-3.66,10.39-2.39,3.46,1.19,6.54,4.32,4.42,8.49-1,1.94-3,3.25-4.83,4.35a34.83,34.83,0,0,1-11.65,4.14c-1.89.36-1.09,3.25.8,2.89Z" style="fill:blue"/><path d="M160.55,318.19c9,32.32,36.75,56.49,41.78,90.19l2.74-1.16c-3.62-6.16-6.56-13.43-6.89-20.68-.43-9.29,10.17-12.82,17.91-10.66,7.45,2.09,12.64,11.16,7.43,18-3.87,5-11.19,5.89-17.09,6.17-1.92.09-1.93,3.09,0,3,7.65-.36,17.28-2,21-9.68,3.58-7.48-1-16.4-8.22-19.55-7.07-3.08-18.64-1.56-22.72,5.74-2.09,3.74-1.31,8.35-.54,12.36a53.13,53.13,0,0,0,6.55,16.84c.92,1.57,3,.44,2.74-1.16-5-33.76-32.8-57.86-41.78-90.19a1.5,1.5,0,0,0-2.89.8Z" style="fill:blue"/><path d="M226.41,318.68a393.42,393.42,0,0,0,28.2,59.85l2.36-1.82a25.74,25.74,0,0,1-7.46-11.89c-.62-1.86-1.13-3.74-1.61-5.64a5.75,5.75,0,0,1-.17-3.73c.67-2.23,1.45-2.17,3.75-2.79,3-.79,6.36-1.32,9.41-.56s7.08,3.86,6.71,7.43c-.59,5.61-8.66,9.94-12.84,12.74-1.6,1.07-.1,3.67,1.51,2.59,5.18-3.46,14.85-8.64,14.26-16-.58-7.17-7.93-10.48-14.32-10.07-5.86.37-13.2,1.87-11.72,9.06,1.58,7.68,4.26,15.72,10.36,21A1.51,1.51,0,0,0,257.2,377a388.76,388.76,0,0,1-27.9-59.13c-.67-1.79-3.57-1-2.89.8Z" style="fill:blue"/><path d="M340.87,305.08c-9.47.24-35.77,2.77-29.88,18.76,1.86,5.06,7.44,6.31,11.92,3.78,7.63-4.3,6.9-15.09,14.33-19.53l-2.2-.9a65.83,65.83,0,0,0,6.64,14.44c1,1.64,3.61.14,2.59-1.51a62.5,62.5,0,0,1-6.34-13.72,1.52,1.52,0,0,0-2.2-.9c-3.38,2-5.41,4.94-7.06,8.47-1.84,3.93-8.81,18.81-14.34,9.66-3.7-6.14,3.1-11.16,8.25-12.86a63.78,63.78,0,0,1,18.3-2.69c1.93,0,1.93-3,0-3Z" style="fill:blue"/><path d="M358.74,313.69a336.21,336.21,0,0,0,3,43.17l2.95-.4a267,267,0,0,1-2.77-44.91c.08-3.31-.45-11.92,3.9-13l5.84,1.31a25.29,25.29,0,0,1,2.59,3.39,29.45,29.45,0,0,1,2.16,4c.78,1.73,1.72,4.09-.19,5.64-.91.74-4.35,1.09-5.47,1.28a47.2,47.2,0,0,1-12.66.25c-1.92-.19-1.91,2.81,0,3a47.78,47.78,0,0,0,17.12-1.13c3.17-.85,5.79-1.85,5.55-5.55-.38-5.95-7.15-17.07-14.15-15.67-9.77,2-7.82,17.25-7.78,24.23a273.46,273.46,0,0,0,2.94,38c.24,1.65,3.17,1.28,2.95-.4a336.21,336.21,0,0,1-3-43.17,1.5,1.5,0,0,0-3,0Z" style="fill:blue"/><path d="M389.41,298.84q-.39,24.29.77,48.55c.09,1.92,3.08,1.94,3,0a200,200,0,0,1,.59-26.23q.66-7.27,1.88-14.48c.68-4,1.06-8.69,2.79-12.42,3.72-8,18.66-7.9,21.22,1.33s-18.37,11.49-24.12,11.83c-1.92.11-1.93,3.11,0,3a57.65,57.65,0,0,0,17.8-3.74c3.56-1.4,8.23-3,9.37-7.09,2.2-7.94-6.73-13.82-13.52-14.16a14.87,14.87,0,0,0-11.18,3.9c-4,4.05-4.34,11.21-5.24,16.54a199,199,0,0,0-2.57,41.51h3q-1.17-24.26-.77-48.55c0-1.93-3-1.93-3,0Z" style="fill:blue"/><path d="M210.47,449.17A46,46,0,0,0,204.82,467c-.41,5.23,2.16,6.27,7,7.11,4.62.8,9.6,1.33,14.06-.43,5.39-2.13,7.75-7,9.81-12.11.73-1.79-2.17-2.57-2.89-.8-1.54,3.79-3.27,7.83-7.16,9.76-3.74,1.86-8.32,1.44-12.29.8-5.6-.9-5.94-3.74-4.74-9a46.35,46.35,0,0,1,4.44-11.67c.91-1.7-1.68-3.22-2.59-1.51Z" style="fill:blue"/><path d="M267.5,447c-7.23.07-10.3,9.41-8.31,15.49,1,3,4.49,3.61,7.2,4.27,3.86.95,8,1.47,11.76-.1,14.44-6,.61-31.44-10-21.17-1.39,1.34.73,3.46,2.12,2.12,6.76-6.53,17.88,12.84,6,16.57a16.34,16.34,0,0,1-10.51-.71,5.58,5.58,0,0,1-3.77-5.14c-.4-3.51,1.31-8.3,5.56-8.34a1.5,1.5,0,0,0,0-3Z" style="fill:blue"/><path d="M302.55,457.44c-.07-4.43-2.26-18.53,3.11-20.23,5.73-1.81,11.23,8,14.06,11.63.75,1,2.18.28,2.51-.66,1.3-3.8,4.31-7,8.75-4.62a27.22,27.22,0,0,1,5.36,4.55A56.57,56.57,0,0,1,345,459c1,1.64,3.61.13,2.59-1.51-4-6.44-9.87-14.57-17.08-17.61-6.07-2.55-9.39,2.35-11.16,7.49l2.51-.66c-4-5.15-9.94-15.41-18.06-12-2.58,1.07-3.72,3.16-4.09,5.83-.76,5.48-.23,11.42-.15,16.94a1.5,1.5,0,0,0,3,0Z" style="fill:blue"/><path d="M362,445.6c3.17.19,19.11,1.38,16.45-6.1-1.63-4.57-12.71-6.71-16.4-3.83-5.55,4.33-.35,11,3.68,14a37.44,37.44,0,0,0,25.92,6.67c1.9-.2,1.92-3.2,0-3A34.84,34.84,0,0,1,368.54,448c-1.22-.81-4.84-3-5.13-4.74l4.75-5.58q1.83.36,3.62.9,4.65.24,1.25,3.63l-3.4.41a53.5,53.5,0,0,1-7.65,0c-1.93-.12-1.92,2.88,0,3Z" style="fill:blue"/><path d="M394.71,442.24a36.51,36.51,0,0,0,6,14.23c1.1,1.57,3.7.07,2.59-1.51a34.4,34.4,0,0,1-5.73-13.51c-.36-1.89-3.25-1.09-2.89.8Z" style="fill:blue"/><path d="M389.31,426.13a1.5,1.5,0,0,0,0-3,1.5,1.5,0,0,0,0,3Z" style="fill:blue"/><path d="M419.84,442.59l0,5.19h3c-.08-6.68-.13-16.33,7.14-19.52s13.51,3.16,18.08,8c1.33,1.4,3.45-.72,2.12-2.12-5.38-5.65-13-12.47-21.41-8.68s-9,14.35-8.94,22.34a1.5,1.5,0,0,0,3,0l0-5.19a1.5,1.5,0,0,0-3,0Z" style="fill:blue"/><path d="M484.78,428.27c-7.79-3-12.2,7.27-6.42,12.32,2.29,2,4.83,2.45,6.33-.41,2.54-4.82,1.64-11.7,0-16.61L482,424.73c3.76,6.49,7,13.75,8.08,21.24,1.47,10.37-6.16,13.38-14.81,14.48-1.89.24-1.91,3.24,0,3,7.5-1,16.19-2.93,17.82-11.57,1.78-9.43-3.91-20.75-8.5-28.66-.84-1.44-3.28-.49-2.74,1.16,1,3.12,2.27,8,1,11.28-.48,1.23-.88,2.91-2.87,2.39-4-1-.15-8.46,4-6.87,1.8.69,2.59-2.21.8-2.89Z" style="fill:blue"/><path d="M263.49,504a68.4,68.4,0,0,0-40.69,19.73,1.52,1.52,0,0,0,.66,2.51l7.84,3.27c2.51,1,9.55,2.73,4.77,6.22-4.14,3-12.24,2.47-17.07,2.19-1.93-.11-1.92,2.89,0,3,6.16.36,19.47.73,22.76-6.29,1-2,.42-3.47-1.47-4.59-4.8-2.87-10.87-4.53-16-6.68l.66,2.51A65.18,65.18,0,0,1,263.49,507c1.89-.23,1.92-3.23,0-3Z" style="fill:blue"/><path d="M314.68,499.1c-11.18-2.21-20.17,6.42-21.55,17.18-.7,5.46.79,9.87,5.6,12.75,5.58,3.34,12.57,5.09,18.93,6,5.14.76,10.78,1.24,15.12-2.15,3.66-2.87,7.58-8.49,8.2-13.16,1.58-11.91-16.89-18-25.34-21.18-1.81-.68-2.59,2.22-.8,2.89,6.76,2.56,18.65,6.51,22.31,13.44,2.6,4.92-1.65,11.13-5.07,14.59s-8.33,3.35-12.94,2.75c-7.42-1-22.78-3.4-23.21-12.87-.44-9.79,7.72-19.41,18-17.38,1.89.37,2.69-2.52.8-2.89Z" style="fill:blue"/><path d="M304.16,512.06a1.5,1.5,0,0,0,0-3,1.5,1.5,0,0,0,0,3Z" style="fill:blue"/><path d="M316.66,514.41a1.5,1.5,0,0,0,0-3,1.5,1.5,0,0,0,0,3Z" style="fill:blue"/><path d="M308.06,520.66a1.5,1.5,0,0,0,0-3,1.5,1.5,0,0,0,0,3Z" style="fill:blue"/><path d="M298.21,518.34c5,11.24,18.84,13.68,27.67,5.34,1.41-1.33-.72-3.45-2.12-2.12-7.56,7.14-18.8,4.66-23-4.73-.78-1.76-3.36-.24-2.59,1.51Z" style="fill:blue"/><path d="M380.7,504.63c-11.29-1.33-32.53-.77-37.62,12.25-4.8,12.26,7.4,22,18.2,23.69,12.19,1.87,28.75-1.53,33.26-14.69,4.21-12.29-6.77-23.22-18.9-21.33-1.9.3-1.09,3.19.8,2.89,13.38-2.08,20.79,13.54,11.79,23.18-7,7.52-20.07,9-29.64,6.35-9.9-2.69-19.4-15.55-8.95-23.77,8.17-6.42,21.26-6.72,31.06-5.57,1.91.23,1.9-2.78,0-3Z" style="fill:blue"/><path d="M356.5,516.75a1.5,1.5,0,0,0,0-3,1.5,1.5,0,0,0,0,3Z" style="fill:blue"/><path d="M371.34,515.19a1.5,1.5,0,0,0,0-3,1.5,1.5,0,0,0,0,3Z" style="fill:blue"/><path d="M365.09,523a1.5,1.5,0,0,0,0-3,1.5,1.5,0,0,0,0,3Z" style="fill:blue"/><path d="M352.88,521.16c-1.46,5.69,1.7,12.26,7.63,13.78s11.9-2.57,13.4-8.29a1.5,1.5,0,0,0-2.89-.8c-1.08,4.12-5.36,7.3-9.71,6.19s-6.59-6-5.53-10.09c.48-1.87-2.41-2.67-2.89-.8Z" style="fill:blue"/><path d="M413.09,530.44c1.4-9.77,8.31-18.8,18.19-21.19a13,13,0,0,1,7.25.09c3.21,1.15,4.49,4.1,5.85,6.9,2.62,5.37,5.2,10.75,7.8,16.13.84,1.74,3.43.22,2.59-1.51L449,519c-1.43-3-2.68-6.49-4.77-9.06-3.05-3.74-7.83-4.63-12.42-3.83-11.43,2-20,12.42-21.63,23.56-.27,1.89,2.62,2.7,2.89.8Z" style="fill:blue"/><path d="M497.13,511.28a1.5,1.5,0,0,0,0-3,1.5,1.5,0,0,0,0,3Z" style="fill:blue"/><path d="M496.65,510.42a241.55,241.55,0,0,1,39.43,21.94c1.6,1.09,3.1-1.5,1.51-2.59a241.55,241.55,0,0,0-39.43-21.94c-1.75-.77-3.28,1.81-1.51,2.59Z" style="fill:blue"/><path d="M502.34,534a176.91,176.91,0,0,1,31-37.26c1.43-1.31-.7-3.42-2.12-2.12a179.81,179.81,0,0,0-31.42,37.86c-1,1.64,1.57,3.15,2.59,1.51Z" style="fill:blue"/></svg>